<!-- <svg width="50" height="50" viewBox="0 0 50 50" fill="none" xmlns="http://www.w3.org/2000/svg">
<path d="M0 26.7281V5.07812L18.75 15.9031V23.1198L6.25 15.9031V30.3365L0 26.7281Z" fill="#00B0FF"/>
<path d="M18.75 15.9031L37.5 5.07812V26.7281L25 33.9448L18.75 30.3365L31.25 23.1198V15.9031L18.75 23.1198V15.9031Z" fill="#0081CB"/>
<path d="M18.75 30.3364V37.5531L31.25 44.7698V37.5531L18.75 30.3364Z" fill="#00B0FF"/>
<path d="M31.25 44.7698L50 33.9448V19.5115L43.75 23.1198V30.3365L31.25 37.5531V44.7698ZM43.75 15.9031V8.68646L50 5.07812V12.2948L43.75 15.9031Z" fill="#0081CB"/>
</svg> -->
<svg fill="#000000" width="800px" height="800px" viewBox="0 0 32 32" version="1.1" xmlns="http://www.w3.org/2000/svg">
<title>powerbi</title>
<path d="M13.501 16h-7.498c0 0-0 0-0 0-0.69 0-1.25 0.559-1.25 1.25 0 0 0 0 0 0v0 12.496c0 0 0 0 0 0 0 0.69 0.559 1.25 1.25 1.25 0 0 0 0 0 0h8.747v-13.746c0-0.69-0.559-1.25-1.25-1.25v0zM19.749 8.502h-7.498c0 0-0 0-0 0-0.69 0-1.25 0.559-1.25 1.25 0 0 0 0 0 0v0 5.623h2.499c1.035 0.001 1.873 0.84 1.874 1.874v13.746h5.623v-21.244c0-0.69-0.559-1.25-1.25-1.25v0zM27.247 2.254v27.492c0 0 0 0 0 0 0 0.69-0.559 1.25-1.25 1.25 0 0-0 0-0 0h-4.374v-21.244c-0.001-1.035-0.84-1.873-1.874-1.874h-2.499v-5.623c0-0 0-0 0-0 0-0.69 0.559-1.25 1.25-1.25h7.498c0.69 0 1.25 0.559 1.25 1.25 0 0 0 0 0 0v0z"></path>
</svg>