<!-- <svg width="30" height="30" viewBox="0 0 30 30" fill="none" xmlns="http://www.w3.org/2000/svg">
<path fill-rule="evenodd" clip-rule="evenodd" d="M27.8333 15C27.8333 22.0877 22.0877 27.8333 15 27.8333C7.91234 27.8333 2.16666 22.0877 2.16666 15C2.16666 7.91234 7.91234 2.16666 15 2.16666C22.0877 2.16666 27.8333 7.91234 27.8333 15ZM30 15C30 23.2843 23.2843 30 15 30C6.71573 30 0 23.2843 0 15C0 6.71573 6.71573 0 15 0C23.2843 0 30 6.71573 30 15ZM23.2763 8.27633C23.2763 9.13333 22.5816 9.82806 21.7246 9.82806C20.8676 9.82806 20.1729 9.13333 20.1729 8.27633C20.1729 7.41934 20.8676 6.72461 21.7246 6.72461C22.5816 6.72461 23.2763 7.41934 23.2763 8.27633ZM15.164 12.8405L15.354 10.3432L15.5183 8.18279C14.78 8.12663 14.0416 8.19103 13.3312 8.36978C12.7441 8.5175 12.1761 8.74331 11.643 9.0437C10.4647 9.7076 9.50982 10.706 8.899 11.9126C8.28818 13.1192 8.04887 14.4798 8.21134 15.8224C8.37381 17.165 8.93076 18.4293 9.81176 19.4553C10.6928 20.4814 11.8582 21.2232 13.1608 21.5869C14.4634 21.9506 15.8446 21.9198 17.1297 21.4986C18.4148 21.0773 19.5461 20.2844 20.3806 19.2201C20.7582 18.7386 21.0673 18.2113 21.3021 17.6533C21.5862 16.9784 21.7615 16.2585 21.8177 15.5205L21.8178 15.5196L19.6574 15.3553L17.1601 15.1653L14.9997 15.0009L15.164 12.8405ZM18.9617 17.4752L14.8353 17.1614L12.6749 16.997L12.8392 14.8366L13.1531 10.7102C13.0009 10.7757 12.8519 10.8495 12.7066 10.9313C11.9017 11.3849 11.2494 12.0669 10.8321 12.8912C10.4148 13.7154 10.2513 14.6449 10.3623 15.5621C10.4733 16.4793 10.8538 17.343 11.4556 18.0439C12.0575 18.7449 12.8536 19.2516 13.7435 19.5C14.6333 19.7485 15.5768 19.7275 16.4547 19.4397C17.3327 19.1519 18.1055 18.6103 18.6756 17.8832C18.7785 17.752 18.8739 17.6158 18.9617 17.4752Z" fill="url(#paint0_linear_1478_16881)"/>
<defs>
<linearGradient id="paint0_linear_1478_16881" x1="15" y1="0" x2="15" y2="30" gradientUnits="userSpaceOnUse">
<stop stop-color="#FFF"/>
<stop offset="0.461458" stop-color="#FFF"/>
<stop offset="1" stop-color="#FFF"/>
</linearGradient>
</defs>
</svg> -->

<svg version="1.0" id="Layer_1" xmlns="http://www.w3.org/2000/svg" xmlns:xlink="http://www.w3.org/1999/xlink" 
	 width="800px" height="800px" viewBox="0 0 64 64" enable-background="new 0 0 64 64" xml:space="preserve">
<g>
	<path fill="#231F20" d="M62.242,53.757L51.578,43.093C54.373,38.736,56,33.56,56,28C56,12.536,43.464,0,28,0S0,12.536,0,28
		s12.536,28,28,28c5.56,0,10.736-1.627,15.093-4.422l10.664,10.664c2.344,2.344,6.142,2.344,8.485,0S64.586,56.101,62.242,53.757z
		 M28,54C13.641,54,2,42.359,2,28S13.641,2,28,2s26,11.641,26,26S42.359,54,28,54z M60.828,60.828c-1.562,1.562-4.095,1.562-5.656,0
		L44.769,50.425c2.145-1.606,4.051-3.513,5.657-5.656l10.402,10.402C62.391,56.732,62.391,59.266,60.828,60.828z"/>
	<path fill="#231F20" d="M28,4C14.745,4,4,14.745,4,28s10.745,24,24,24s24-10.745,24-24S41.255,4,28,4z M28,50
		C15.85,50,6,40.15,6,28S15.85,6,28,6s22,9.85,22,22S40.15,50,28,50z"/>
	<path fill="#231F20" d="M28,11c-0.553,0-1,0.447-1,1s0.447,1,1,1c8.284,0,15,6.716,15,15c0,0.553,0.447,1,1,1s1-0.447,1-1
		C45,18.611,37.389,11,28,11z"/>
</g>
</svg>